<svg xmlns="http://www.w3.org/2000/svg" xmlns:xlink="http://www.w3.org/1999/xlink" width="453.236" height="324.347" viewBox="0 0 453.236 324.347"><defs><style>.a,.e{fill:#f2df57;}.a,.b,.c,.d,.h{stroke:#000;stroke-miterlimit:10;}.b{fill:#f99615;}.c{fill:#2ebfff;}.d{fill:#39d89e;}.f{clip-path:url(#a);}.g{fill:#d081ea;}.h{fill:none;}</style><clipPath id="a"><path class="a" d="M909.339,554.284a16.568,16.568,0,0,1-16.567-16.567V462.752a16.567,16.567,0,0,1,33.134,0v74.965A16.567,16.567,0,0,1,909.339,554.284Zm88.511-16.567v-133.7a36.528,36.528,0,1,1,36.528,36.528,16.567,16.567,0,0,0,0,33.134,69.662,69.662,0,1,0-69.662-69.662v133.7a16.567,16.567,0,1,0,33.134,0Zm-149.1,0V427.278A54.046,54.046,0,1,0,794.7,481.324a16.567,16.567,0,0,0,0-33.134,20.912,20.912,0,1,1,20.912-20.859V537.717a16.567,16.567,0,1,0,33.134,0Z" transform="translate(-740.656 -334.359)"/></clipPath></defs><g transform="translate(-700.737 -333.859)"><path class="b" d="M1126.454,613.214,944.3,534.609V691.82Z" transform="translate(-41.723 -34.375)"/><rect class="c" width="55.975" height="55.975" transform="translate(701.237 448.723)"/><circle class="d" cx="57.182" cy="57.182" r="57.182" transform="translate(1039.109 334.359)"/><g transform="translate(733.89 334.359)"><path class="e" d="M909.339,554.284a16.568,16.568,0,0,1-16.567-16.567V462.752a16.567,16.567,0,0,1,33.134,0v74.965A16.567,16.567,0,0,1,909.339,554.284Zm88.511-16.567v-133.7a36.528,36.528,0,1,1,36.528,36.528,16.567,16.567,0,0,0,0,33.134,69.662,69.662,0,1,0-69.662-69.662v133.7a16.567,16.567,0,1,0,33.134,0Zm-149.1,0V427.278A54.046,54.046,0,1,0,794.7,481.324a16.567,16.567,0,0,0,0-33.134,20.912,20.912,0,1,1,20.912-20.859V537.717a16.567,16.567,0,1,0,33.134,0Z" transform="translate(-740.656 -334.359)"/><g class="f" transform="translate(0 0)"><g transform="translate(31.225 11.173)"><path class="g" d="M831.148,546.813s21.372,8.524,21.372-10.135V420.064s-1.8-16.925-19.56-32.718c0,0,20.27,9.947,27.845,29.962s3.477,129.5,3.477,129.5-.382,16.567-16.567,16.567S831.148,546.813,831.148,546.813Z" transform="translate(-787.415 -354.627)"/><path class="g" d="M780.26,446.534s-7.549,16.653,7.378,24.738,21.308,2.5,21.308,27.372c0,0,8.793-3.134,8.793-14.631s-9.252-16.567-16.567-16.567-20.912-20.912-20.912-20.912" transform="translate(-778.352 -364.787)"/><path class="g" d="M1043.658,540.032s-21.372,8.524-21.372-10.135V380.566s1.8-16.926,19.56-32.719c0,0-20.27,9.947-27.845,29.962s-3.476,162.223-3.476,162.223.382,16.567,16.567,16.567S1043.658,540.032,1043.658,540.032Z" transform="translate(-818.016 -347.847)"/><path class="g" d="M1112.919,437.9s7.549,16.653-7.378,24.738-21.308,2.5-21.308,27.372c0,0-8.794-3.134-8.794-14.63s9.252-16.567,16.567-16.567,20.913-20.913,20.913-20.913" transform="translate(-829.349 -363.306)"/><path class="g" d="M940.815,469.359s7.412,3.966,7.412,12.362v79.764s-9.444,13.941-23.979-.594c0,0-3.438,16.567,16.567,16.567s16.567-16.567,16.567-16.567V485.926S959.526,469.359,940.815,469.359Z" transform="translate(-803.357 -368.706)"/></g></g><path class="h" d="M909.339,554.284a16.568,16.568,0,0,1-16.567-16.567V462.752a16.567,16.567,0,0,1,33.134,0v74.965A16.567,16.567,0,0,1,909.339,554.284Zm88.511-16.567v-133.7a36.528,36.528,0,1,1,36.528,36.528,16.567,16.567,0,0,0,0,33.134,69.662,69.662,0,1,0-69.662-69.662v133.7a16.567,16.567,0,1,0,33.134,0Zm-149.1,0V427.278A54.046,54.046,0,1,0,794.7,481.324a16.567,16.567,0,0,0,0-33.134,20.912,20.912,0,1,1,20.912-20.859V537.717a16.567,16.567,0,1,0,33.134,0Z" transform="translate(-740.656 -334.359)"/></g></g></svg>