<svg xmlns="http://www.w3.org/2000/svg" width="49.793" height="30.136" viewBox="0 0 49.793 30.136"><defs><style>.a{fill:#55d89e;}</style></defs><g transform="translate(-616.312 -151)"><g transform="translate(637.156 166.323)"><path class="a" d="M802.221,300.812a2.27,2.27,0,0,1-2.27-2.27V288.27a2.27,2.27,0,0,1,4.54,0v10.272A2.27,2.27,0,0,1,802.221,300.812Z" transform="translate(-799.951 -286)"/></g><g transform="translate(647.014 151)"><path class="a" d="M889.074,181.136a2.27,2.27,0,0,1-2.27-2.27v-18.32a9.546,9.546,0,1,1,9.545,9.545,2.27,2.27,0,0,1,0-4.54,5.005,5.005,0,1,0-5.005-5.005v18.32A2.27,2.27,0,0,1,889.074,181.136Z" transform="translate(-886.804 -151)"/></g><g transform="translate(616.312 156.327)"><path class="a" d="M628.853,222.74a2.27,2.27,0,0,1-2.27-2.27V205.344a2.866,2.866,0,1,0-2.865,2.858,2.27,2.27,0,0,1,0,4.54,7.406,7.406,0,1,1,7.406-7.406V220.47A2.27,2.27,0,0,1,628.853,222.74Z" transform="translate(-616.312 -197.931)"/></g></g></svg>